<?xml version="1.0" encoding="UTF-8"?>
<svg version="1.1" xmlns="http://www.w3.org/2000/svg" width="264" height="225">
<path d="M0 0 C1.05964462 -0.0071553 2.11928925 -0.01431061 3.21104431 -0.02168274 C4.36849655 -0.02437164 5.52594879 -0.02706055 6.71847534 -0.02983093 C7.94169998 -0.03640213 9.16492462 -0.04297333 10.42521667 -0.04974365 C14.47853847 -0.06947441 18.53182071 -0.08114407 22.58517456 -0.09111023 C23.98415013 -0.09515991 25.3831255 -0.0992769 26.78210068 -0.10346031 C33.3580594 -0.12250475 39.93400697 -0.1367355 46.50998795 -0.14507228 C54.08230787 -0.15483239 61.65433451 -0.18112264 69.22655118 -0.22157317 C75.09086091 -0.25181675 80.95508699 -0.26654906 86.81947315 -0.26985329 C90.31642812 -0.27219503 93.81306955 -0.28103962 97.30994034 -0.30631447 C101.21834753 -0.33410765 105.12637471 -0.32973891 109.03488159 -0.32279968 C110.75284187 -0.34201477 110.75284187 -0.34201477 112.50550842 -0.36161804 C123.20904174 -0.29258043 131.05976497 2.61283879 138.85079956 9.99092102 C143.87873443 15.65504357 145.87726957 21.89946826 145.91203308 29.38230896 C145.92276604 30.97177589 145.92276604 30.97177589 145.93371582 32.59335327 C145.93640472 33.75080551 145.93909363 34.90825775 145.94186401 36.1007843 C145.94843521 37.32400894 145.95500641 38.54723358 145.96177673 39.80752563 C145.98150749 43.86084743 145.99317715 47.91412967 146.00314331 51.96748352 C146.00719299 53.36645909 146.01130998 54.76543446 146.01549339 56.16440964 C146.03453783 62.74036836 146.04876858 69.31631593 146.05710536 75.89229691 C146.06686547 83.46461683 146.09315572 91.03664347 146.13360626 98.60886014 C146.16384983 104.47316987 146.17858214 110.33739595 146.18188637 116.20178211 C146.18422812 119.69873708 146.1930727 123.19537851 146.21834755 126.6922493 C146.24614073 130.60065649 146.24177199 134.50868367 146.23483276 138.41719055 C146.25404785 140.13515083 146.25404785 140.13515083 146.27365112 141.88781738 C146.20808274 152.05348421 143.65322446 160.01014591 136.62423706 167.45967102 C128.65932121 174.68833414 119.95181259 175.44414625 109.66012573 175.42182922 C108.44475632 175.42694016 107.2293869 175.43205109 105.97718811 175.43731689 C102.6546485 175.44881312 99.33235885 175.45128987 96.00981688 175.4487536 C93.22927261 175.44768083 90.44875113 175.45257523 87.66821176 175.45735902 C81.10332447 175.46844122 74.5384944 175.46889936 67.97360229 175.46284485 C61.21847604 175.45681026 54.46355834 175.46910579 47.70846766 175.49041492 C41.89422796 175.50807651 36.08005436 175.51402498 30.26578885 175.51077718 C26.79971061 175.50897086 23.33378105 175.51153454 19.86772728 175.52549171 C15.99766353 175.54049336 12.12786166 175.53106016 8.25778198 175.51948547 C7.12137268 175.52712921 5.98496338 175.53477295 4.81411743 175.54264832 C-5.07547191 175.47744511 -13.37734568 173.63793369 -20.79373169 166.68623352 C-28.489059 158.51114765 -29.8301622 149.37697164 -29.75271606 138.5124054 C-29.76322998 136.6762542 -29.76322998 136.6762542 -29.7739563 134.80300903 C-29.78845599 131.47416874 -29.78518398 128.14633458 -29.77243996 124.81755257 C-29.76223583 121.31620669 -29.77172603 117.81490062 -29.77798462 114.31355286 C-29.78523966 108.43623741 -29.77573004 102.55912373 -29.75662231 96.68183899 C-29.73485749 89.90952492 -29.7419104 83.13769271 -29.76392794 76.3653903 C-29.78214348 70.52639788 -29.78461038 64.68754961 -29.77417326 58.84853792 C-29.76797193 55.37184546 -29.76700898 51.89537868 -29.78031921 48.41870117 C-29.7941357 44.5395926 -29.7749279 40.66101364 -29.75271606 36.78193665 C-29.76081299 35.64605606 -29.76890991 34.51017548 -29.7772522 33.33987427 C-29.6712599 23.30481733 -27.18896851 15.30841521 -20.23513794 7.90498352 C-14.23334044 2.62996619 -7.93481548 0.03686328 0 0 Z M19.07736206 70.27217102 C12.7956203 78.08190401 8.10011114 86.76893345 3.38986206 95.58467102 C2.74303516 96.77949955 2.09590155 97.97416209 1.44845581 99.1686554 C-1.80929168 104.38680706 -1.80929168 104.38680706 -3.23513794 110.14717102 C4.02486206 110.14717102 11.28486206 110.14717102 18.76486206 110.14717102 C21.23884466 105.76344747 23.70880596 101.37776063 26.17111206 96.98750305 C27.33405829 94.9149362 28.49829855 92.84309529 29.66329956 90.77168274 C31.3780633 87.72213381 33.08788571 84.66985192 34.79510498 81.61607361 C35.48397462 80.38555794 36.17434733 79.15588253 36.86621094 77.92704773 C37.84812944 76.18234515 38.82419403 74.43435194 39.80001831 72.68623352 C40.37115356 71.66739075 40.94228882 70.64854797 41.5307312 69.59883118 C42.91473917 67.30689322 42.91473917 67.30689322 42.76486206 65.14717102 C34.02441131 64.74786109 26.1876625 64.650073 19.07736206 70.27217102 Z M47.76486206 65.14717102 C47.03783081 66.49166321 46.31079956 67.8361554 45.56173706 69.22138977 C39.6583046 80.10571964 33.67321476 90.92807071 27.42404175 101.61860657 C26.9435437 102.44787659 26.46304565 103.27714661 25.96798706 104.13154602 C25.54162964 104.86083313 25.11527222 105.59012024 24.67599487 106.34150696 C23.61469742 108.10767758 23.61469742 108.10767758 23.76486206 110.14717102 C31.02486206 110.14717102 38.28486206 110.14717102 45.76486206 110.14717102 C48.44317277 105.48691038 51.10820161 100.81975732 53.76486206 96.14717102 C54.33269409 95.15056458 54.90052612 94.15395813 55.48556519 93.12715149 C57.37613371 89.80374672 59.25864124 86.47587468 61.13986206 83.14717102 C61.75877319 82.06121643 62.37768433 80.97526184 63.01535034 79.85639954 C63.60042358 78.81797913 64.18549683 77.77955872 64.78829956 76.70967102 C65.57599731 75.31941711 65.57599731 75.31941711 66.37960815 73.90107727 C68.07606431 70.69291487 68.07606431 70.69291487 69.76486206 65.14717102 C62.50486206 65.14717102 55.24486206 65.14717102 47.76486206 65.14717102 Z M74.76486206 65.14717102 C71.99182336 70.14672864 71.99182336 70.14672864 69.21994019 75.14692688 C66.4952257 80.05602244 63.74844095 84.95195167 60.98361206 89.83857727 C60.02865845 91.53059265 60.02865845 91.53059265 59.05441284 93.25679016 C57.78539995 95.50402072 56.51297615 97.74932878 55.23703003 99.99263 C54.65582397 101.02331604 54.07461792 102.05400208 53.47579956 103.11592102 C52.95292358 104.03824524 52.43004761 104.96056946 51.8913269 105.9108429 C50.61490752 108.02753443 50.61490752 108.02753443 50.76486206 110.14717102 C59.50531281 110.54648095 67.34206163 110.64426904 74.45236206 105.02217102 C80.73410382 97.21243803 85.42961298 88.52540859 90.13986206 79.70967102 C90.78668897 78.5148425 91.43382257 77.32017995 92.08126831 76.12568665 C95.3390158 70.90753498 95.3390158 70.90753498 96.76486206 65.14717102 C89.50486206 65.14717102 82.24486206 65.14717102 74.76486206 65.14717102 Z M102.76486206 68.14717102 C100.59860647 71.73503185 99.74354561 74.08134868 99.82736206 78.27217102 C100.91534678 81.60865749 102.36705229 83.60403944 104.76486206 86.14717102 C108.22225763 87.87586881 111.98461774 87.63683997 115.76486206 87.14717102 C118.63516075 85.35323434 120.25617844 84.16453826 121.76486206 81.14717102 C122.38830192 76.11512074 122.58748218 72.36863726 119.70236206 68.08467102 C113.74234425 64.15359544 108.79677621 64.43522385 102.76486206 68.14717102 Z " fill="#F7EF2B" transform="translate(63.235137939453125,17.852828979492188)"/>
</svg>
